<?xml version="1.0"?>
<svg xmlns="http://www.w3.org/2000/svg" viewBox="0 0 220 56" preserveAspectRatio="xMidYMid meet">
  <defs></defs>
  
    <g transform="translate(0, 2) scale(1.95)">
      <rect x="7.50" y="0.00" width="1.7" height="1.7" rx="0.34" fill="#DC2626" opacity="1"></rect>
  <rect x="5.00" y="2.50" width="1.7" height="1.7" rx="0.34" fill="#DC2626" opacity="0.55"></rect>
  <rect x="7.50" y="2.50" width="1.7" height="1.7" rx="0.34" fill="#DC2626" opacity="1"></rect>
  <rect x="10.00" y="2.50" width="1.7" height="1.7" rx="0.34" fill="#DC2626" opacity="1"></rect>
  <rect x="5.00" y="5.00" width="1.7" height="1.7" rx="0.34" fill="#DC2626" opacity="1"></rect>
  <rect x="7.50" y="5.00" width="1.7" height="1.7" rx="0.34" fill="#DC2626" opacity="1"></rect>
  <rect x="10.00" y="5.00" width="1.7" height="1.7" rx="0.34" fill="#DC2626" opacity="1"></rect>
  <rect x="2.50" y="7.50" width="1.7" height="1.7" rx="0.34" fill="#DC2626" opacity="0.55"></rect>
  <rect x="5.00" y="7.50" width="1.7" height="1.7" rx="0.34" fill="#DC2626" opacity="1"></rect>
  <rect x="7.50" y="7.50" width="1.7" height="1.7" rx="0.34" fill="#DC2626" opacity="1"></rect>
  <rect x="10.00" y="7.50" width="1.7" height="1.7" rx="0.34" fill="#DC2626" opacity="1"></rect>
  <rect x="12.50" y="7.50" width="1.7" height="1.7" rx="0.34" fill="#DC2626" opacity="0.55"></rect>
  <rect x="2.50" y="10.00" width="1.7" height="1.7" rx="0.34" fill="#DC2626" opacity="1"></rect>
  <rect x="5.00" y="10.00" width="1.7" height="1.7" rx="0.34" fill="#DC2626" opacity="1"></rect>
  <rect x="7.50" y="10.00" width="1.7" height="1.7" rx="0.34" fill="#DC2626" opacity="1"></rect>
  <rect x="10.00" y="10.00" width="1.7" height="1.7" rx="0.34" fill="#DC2626" opacity="1"></rect>
  <rect x="12.50" y="10.00" width="1.7" height="1.7" rx="0.34" fill="#DC2626" opacity="1"></rect>
  <rect x="0.00" y="12.50" width="1.7" height="1.7" rx="0.34" fill="#DC2626" opacity="0.55"></rect>
  <rect x="2.50" y="12.50" width="1.7" height="1.7" rx="0.34" fill="#DC2626" opacity="1"></rect>
  <rect x="5.00" y="12.50" width="1.7" height="1.7" rx="0.34" fill="#DC2626" opacity="1"></rect>
  <rect x="7.50" y="12.50" width="1.7" height="1.7" rx="0.34" fill="#DC2626" opacity="1"></rect>
  <rect x="10.00" y="12.50" width="1.7" height="1.7" rx="0.34" fill="#DC2626" opacity="1"></rect>
  <rect x="12.50" y="12.50" width="1.7" height="1.7" rx="0.34" fill="#DC2626" opacity="1"></rect>
  <rect x="15.00" y="12.50" width="1.7" height="1.7" rx="0.34" fill="#DC2626" opacity="0.55"></rect>
  <rect x="0.00" y="15.00" width="1.7" height="1.7" rx="0.34" fill="#DC2626" opacity="1"></rect>
  <rect x="2.50" y="15.00" width="1.7" height="1.7" rx="0.34" fill="#DC2626" opacity="1"></rect>
  <rect x="5.00" y="15.00" width="1.7" height="1.7" rx="0.34" fill="#DC2626" opacity="1"></rect>
  <rect x="7.50" y="15.00" width="1.7" height="1.7" rx="0.34" fill="#DC2626" opacity="1"></rect>
  <rect x="10.00" y="15.00" width="1.7" height="1.7" rx="0.34" fill="#DC2626" opacity="1"></rect>
  <rect x="12.50" y="15.00" width="1.7" height="1.7" rx="0.34" fill="#DC2626" opacity="1"></rect>
  <rect x="15.00" y="15.00" width="1.7" height="1.7" rx="0.34" fill="#DC2626" opacity="1"></rect>
  <rect x="0.00" y="17.50" width="1.7" height="1.7" rx="0.34" fill="#DC2626" opacity="1"></rect>
  <rect x="2.50" y="17.50" width="1.7" height="1.7" rx="0.34" fill="#DC2626" opacity="1"></rect>
  <rect x="5.00" y="17.50" width="1.7" height="1.7" rx="0.34" fill="#DC2626" opacity="1"></rect>
  <rect x="7.50" y="17.50" width="1.7" height="1.7" rx="0.34" fill="#DC2626" opacity="1"></rect>
  <rect x="10.00" y="17.50" width="1.7" height="1.7" rx="0.34" fill="#DC2626" opacity="1"></rect>
  <rect x="12.50" y="17.50" width="1.7" height="1.7" rx="0.34" fill="#DC2626" opacity="1"></rect>
  <rect x="15.00" y="17.50" width="1.7" height="1.7" rx="0.34" fill="#DC2626" opacity="1"></rect>
  <rect x="2.50" y="20.00" width="1.7" height="1.7" rx="0.34" fill="#DC2626" opacity="1"></rect>
  <rect x="5.00" y="20.00" width="1.7" height="1.7" rx="0.34" fill="#DC2626" opacity="1"></rect>
  <rect x="7.50" y="20.00" width="1.7" height="1.7" rx="0.34" fill="#DC2626" opacity="1"></rect>
  <rect x="10.00" y="20.00" width="1.7" height="1.7" rx="0.34" fill="#DC2626" opacity="1"></rect>
  <rect x="12.50" y="20.00" width="1.7" height="1.7" rx="0.34" fill="#DC2626" opacity="1"></rect>
  <rect x="2.50" y="22.50" width="1.7" height="1.7" rx="0.34" fill="#DC2626" opacity="1"></rect>
  <rect x="5.00" y="22.50" width="1.7" height="1.7" rx="0.34" fill="#DC2626" opacity="1"></rect>
  <rect x="7.50" y="22.50" width="1.7" height="1.7" rx="0.34" fill="#DC2626" opacity="1"></rect>
  <rect x="10.00" y="22.50" width="1.7" height="1.7" rx="0.34" fill="#DC2626" opacity="1"></rect>
  <rect x="12.50" y="22.50" width="1.7" height="1.7" rx="0.34" fill="#DC2626" opacity="1"></rect>
  <rect x="5.00" y="25.00" width="1.7" height="1.7" rx="0.34" fill="#DC2626" opacity="0.55"></rect>
  <rect x="7.50" y="25.00" width="1.7" height="1.7" rx="0.34" fill="#DC2626" opacity="1"></rect>
  <rect x="10.00" y="25.00" width="1.7" height="1.7" rx="0.34" fill="#DC2626" opacity="0.55"></rect>
    </g>
    <text x="44" y="38" font-family="Plus Jakarta Sans, Inter, system-ui, sans-serif" font-weight="800" font-size="30" letter-spacing="-0.75" fill="#FFFFFF">HEMODAT</text>
    <circle cx="108.6" cy="22.5" r="2.4" fill="#FFFFFF"></circle>
  
</svg>